<?xml version="1.0" encoding="UTF-8"?>
<svg width="24" height="24" viewBox="0 0 24 24" fill="none" xmlns="http://www.w3.org/2000/svg">
  <path d="M0 0h1v1H0V0zm1 0h1v1H1V0zm1 0h1v1H2V0zm1 0h1v1H3V0zm1 0h1v1H4V0zm1 0h1v1H5V0zm1 0h1v1H6V0zm1 0h1v1H7V0zm1 0h1v1H8V0zm1 0h1v1H9V0zm1 0h1v1h-1V0zm1 0h1v1h-1V0zm1 0h1v1h-1V0zm1 0h1v1h-1V0zm1 0h1v1h-1V0zm1 0h1v1h-1V0zm1 0h1v1h-1V0zm1 0h1v1h-1V0zm1 0h1v1h-1V0zm1 0h1v1h-1V0zm1 0h1v1h-1V0zm1 0h1v1h-1V0zm1 0h1v1h-1V0zm1 0h1v1h-1V0z" fill="rgba(255,255,255,0.05)"/>
  <path d="M0 1h1v1H0V1zm1 0h1v1H1V1zm1 0h1v1H2V1zm1 0h1v1H3V1zm1 0h1v1H4V1zm1 0h1v1H5V1zm1 0h1v1H6V1zm1 0h1v1H7V1zm1 0h1v1H8V1zm1 0h1v1H9V1zm1 0h1v1h-1V1zm1 0h1v1h-1V1zm1 0h1v1h-1V1zm1 0h1v1h-1V1zm1 0h1v1h-1V1zm1 0h1v1h-1V1zm1 0h1v1h-1V1zm1 0h1v1h-1V1zm1 0h1v1h-1V1zm1 0h1v1h-1V1zm1 0h1v1h-1V1zm1 0h1v1h-1V1zm1 0h1v1h-1V1zm1 0h1v1h-1V1z" fill="rgba(255,255,255,0.05)"/>
</svg>